<?xml version="1.0" standalone="no"?>
<!DOCTYPE svg PUBLIC "-//W3C//DTD SVG 20010904//EN"
 "http://www.w3.org/TR/2001/REC-SVG-20010904/DTD/svg10.dtd">
<svg version="1.0" xmlns="http://www.w3.org/2000/svg"
 width="82.000000pt" height="82.000000pt" viewBox="0 0 82.000000 82.000000"
 preserveAspectRatio="xMidYMid meet">

<g transform="translate(0.000000,82.000000) scale(0.100000,-0.100000)"
fill="#000000" stroke="none">
<path d="M338 644 l-87 -56 44 -89 45 -89 -160 -80 c-95 -48 -164 -88 -170
-101 -24 -44 17 -109 68 -109 15 0 92 32 171 70 78 39 147 70 152 70 5 0 25
-31 44 -70 31 -62 39 -70 63 -70 38 0 126 27 182 55 50 25 120 89 119 108 0 7
-40 91 -88 187 l-87 174 -90 27 c-49 15 -96 28 -104 28 -8 0 -54 -24 -102 -55z
m191 -24 l66 -19 78 -157 c72 -144 77 -158 62 -174 -23 -26 -111 -71 -166 -85
l-50 -13 -99 198 -99 198 52 35 c61 42 70 43 156 17z"/>
<path d="M446 601 c9 -9 119 -51 131 -51 22 0 -21 22 -76 39 -35 11 -60 16
-55 12z"/>
</g>
</svg>
